<?xml version="1.0" standalone="no"?><!DOCTYPE svg PUBLIC "-//W3C//DTD SVG 1.1//EN" "http://www.w3.org/Graphics/SVG/1.1/DTD/svg11.dtd"><svg t="1547603046057" class="icon" style="" viewBox="0 0 1024 1024" version="1.1" xmlns="http://www.w3.org/2000/svg" p-id="8591" xmlns:xlink="http://www.w3.org/1999/xlink" width="200" height="200"><defs><style type="text/css"></style></defs><path d="M841.143 1024H694.857v-73.143h146.286c60.599 0 109.714-49.115 109.714-109.714V694.857H1024v146.286C1024 942.117 942.117 1024 841.143 1024z m146.286-475.429H36.57C16.384 548.571 0 532.187 0 512c0-20.187 16.384-36.571 36.571-36.571H987.43c20.187 0 36.571 16.384 36.571 36.571 0 20.187-16.384 36.571-36.571 36.571z m-36.572-365.714c0-60.599-49.115-109.714-109.714-109.714H694.857V0h146.286C942.117 0 1024 81.883 1024 182.857v146.286h-73.143V182.857z m-877.714 0v146.286H0V182.857C0 81.883 81.883 0 182.857 0h146.286v73.143H182.857c-60.599 0-109.714 49.115-109.714 109.714z m0 658.286c0 60.599 49.115 109.714 109.714 109.714h146.286V1024H182.857C81.883 1024 0 942.117 0 841.143V694.857h73.143v146.286z" fill="" p-id="8592"></path></svg>